<svg width="440" height="430" viewBox="0 0 440 430" fill="none" xmlns="http://www.w3.org/2000/svg">
<g clip-path="url(#clip0_4_2)">
<path d="M426.1 166.7C377.4 83.2 245.1 113 218.1 72.4C204.3 51.6 188.8 27.5 166.4 15C145 3 120.2 -1.3 98.6 0.299998C21.4 6 -11.4 75 3.5 150.9C23.3 252.1 113 355.5 219.5 356.2C275.2 356.6 328.4 336.7 370.2 308.5C370.5 308.3 370.8 308.1 371.1 307.9C412.9 279.5 463.3 230.4 426.1 166.7Z" fill="#D9D9D9"/>
<path opacity="0.7" d="M426.1 166.7C377.4 83.2 245.1 113 218.1 72.4C204.3 51.6 188.8 27.5 166.4 15C145 3 120.2 -1.3 98.6 0.299998C21.4 6 -11.4 75 3.5 150.9C23.3 252.1 113 355.5 219.5 356.2C275.2 356.6 328.4 336.7 370.2 308.5C370.5 308.3 370.8 308.1 371.1 307.9C412.9 279.5 463.3 230.4 426.1 166.7Z" fill="white"/>
<path d="M47.7 172.8H42.3C30.2 172.8 20.4 182.6 20.4 194.7V315C20.4 327.1 30.2 336.9 42.3 336.9H116.7C128.8 336.9 138.6 327.1 138.6 315" stroke="#263238" stroke-width="1.1031" stroke-miterlimit="10" stroke-linecap="round" stroke-linejoin="round" stroke-dasharray="4.41 4.41"/>
<path d="M132.5 59.2V35.5C132.5 28.1 138.5 22.1 145.9 22.1H242.6C250 22.1 256 28.1 256 35.5" stroke="#263238" stroke-width="1.1031" stroke-miterlimit="10" stroke-linecap="round" stroke-linejoin="round" stroke-dasharray="4.41 4.41"/>
<path d="M219.5 429.8C325.263 429.8 411 417.801 411 403C411 388.199 325.263 376.2 219.5 376.2C113.737 376.2 28 388.199 28 403C28 417.801 113.737 429.8 219.5 429.8Z" fill="#D9D9D9"/>
<path opacity="0.5" d="M219.5 429.8C325.263 429.8 411 417.801 411 403C411 388.199 325.263 376.2 219.5 376.2C113.737 376.2 28 388.199 28 403C28 417.801 113.737 429.8 219.5 429.8Z" fill="white"/>
<path d="M400.1 91.1V271.2C400.1 283.5 390.2 293.4 377.9 293.4H61.2C48.9 293.4 39 283.5 39 271.2V91.1C39 90.6 39 90.1 39.1 89.5C39.9 78 49.5 68.9 61.2 68.9H377.9C389.6 68.9 399.2 78 400 89.5C400.1 90.1 400.1 90.6 400.1 91.1Z" fill="white" stroke="#263238" stroke-width="1.1031" stroke-miterlimit="10" stroke-linecap="round" stroke-linejoin="round"/>
<path d="M369.6 285H70.6C59.1 285 49.8 275.7 49.8 264.2V97.9H390.4V264.2C390.4 275.7 381.1 285 369.6 285Z" fill="#263238"/>
<path opacity="0.2" d="M390.4 97.9V264.2C390.4 275.7 381.2 285 369.8 285H70.4C59 285 49.8 275.7 49.8 264.2V97.9H390.4Z" fill="white"/>
<path d="M400 89.6H39.1C39.9 78 49.5 68.9 61.2 68.9H377.9C389.6 68.9 399.2 78 400 89.6Z" fill="#D9D9D9" stroke="#263238" stroke-width="1.1031" stroke-miterlimit="10"/>
<path d="M83.4 79.2C83.4 81.4 81.6 83.1 79.5 83.1C77.3 83.1 75.6 81.3 75.6 79.2C75.6 77 77.4 75.3 79.5 75.3C81.7 75.3 83.4 77.1 83.4 79.2Z" fill="#263238"/>
<path d="M100 79.2C100 81.4 98.2 83.1 96.1 83.1C93.9 83.1 92.2 81.3 92.2 79.2C92.2 77 94 75.3 96.1 75.3C98.3 75.3 100 77.1 100 79.2Z" fill="#263238"/>
<path d="M112.7 83.1C114.854 83.1 116.6 81.3539 116.6 79.2C116.6 77.0461 114.854 75.3 112.7 75.3C110.546 75.3 108.8 77.0461 108.8 79.2C108.8 81.3539 110.546 83.1 112.7 83.1Z" fill="#263238"/>
<path d="M390.4 97.9V264.2C390.4 275.7 381.1 285 369.6 285H70.6C60.5 285 52.1 277.8 50.2 268.2C49.9 266.9 49.8 265.6 49.8 264.2V97.9H390.4Z" stroke="#263238" stroke-width="1.1031" stroke-miterlimit="10"/>
<path d="M390.1 123.6C388.6 122.8 387.1 122.1 385.5 121.7L383.6 113.3H375.7L373.8 121.7C372.2 122.1 370.6 122.8 369.2 123.6L362 119L356.4 124.6L360.9 131.8C360.1 133.3 359.4 134.8 359 136.4L350.6 138.3V146.2L359 148.1C359.4 149.7 360.1 151.3 360.9 152.8L356.3 160L361.9 165.6L369.1 161C370.6 161.8 372.1 162.5 373.7 162.9L375.6 171.2H383.5L385.4 162.9C387 162.4 388.6 161.8 390 161L390.4 161.2V123.4L390.1 123.6ZM379.7 152.6C374 152.6 369.4 148 369.4 142.3C369.4 136.6 374 132 379.7 132C385.4 132 390 136.6 390 142.3C389.9 148 385.3 152.6 379.7 152.6Z" fill="#263238"/>
<path d="M247 131.7V115L229.4 111.1C228.4 107.7 227.1 104.4 225.4 101.3L227.5 97.9H144.4L146.5 101.2C144.8 104.3 143.4 107.6 142.5 111L124.9 114.9V131.6L142.5 135.5C143.4 138.9 144.8 142.2 146.5 145.3L136.8 160.5L148.6 172.3L163.8 162.6C166.9 164.3 170.2 165.7 173.6 166.6L177.5 184.2H194.2L198.1 166.6C201.5 165.6 204.8 164.3 207.8 162.6L223 172.3L234.8 160.5L225.2 145.3C226.9 142.2 228.3 138.9 229.2 135.5L247 131.7ZM186 144.9C174.1 144.9 164.4 135.2 164.4 123.3C164.4 111.4 174.1 101.7 186 101.7C197.9 101.7 207.6 111.4 207.6 123.3C207.6 135.2 197.9 144.9 186 144.9Z" fill="#263238"/>
<path d="M135.9 246.6L136.6 233.3L122.8 229.4C122.2 226.7 121.2 224 120 221.5L128.3 209.8L119.4 199.9L106.9 206.9C104.5 205.4 102 204.2 99.3 203.3L97 189.3L83.7 188.6L79.9 202.4C77.2 203 74.5 204 72 205.2L60.3 196.9L50.4 205.8L57.5 218.3C56 220.7 54.8 223.2 53.9 225.9L49.9 226.6V244.6L52.8 245.4C53.4 248.1 54.4 250.8 55.6 253.3L49.9 261.3L50.3 268.2L56.2 274.8L68.7 267.8C71.1 269.3 73.6 270.6 76.3 271.5L78.6 285.1L78.7 285.7L92 286.4L92.4 285.1L95.9 272.6C98.7 272 101.3 271 103.8 269.8L115.4 278.1L125.3 269.2L118.3 256.7C119.8 254.3 121 251.8 121.9 249.1L135.9 246.6ZM100.6 225.9C94.2 218.8 83.4 218.3 76.3 224.6C69.2 231 68.7 241.8 75 248.9C81.4 256 92.2 256.5 99.3 250.2C106.4 243.9 107 233 100.6 225.9Z" fill="#263238"/>
<path d="M242.1 226.8C242.6 224.7 242.9 222.6 242.9 220.5L252.4 215.5L249.8 205.8L239 206.3C237.9 204.5 236.6 202.8 235.1 201.3L238.3 191L229.6 186L222.3 193.9C220.3 193.4 218.1 193.1 216 193.1L211 183.5L201.3 186.1L201.8 196.9C200 198 198.3 199.3 196.8 200.8L186.5 197.6L181.5 206.3L189.5 213.6C189 215.7 188.7 217.8 188.7 219.9L179.1 224.9L181.7 234.6L192.5 234.1C193.6 235.9 194.9 237.6 196.4 239.1L193.2 249.4L201.9 254.4L209.1 246.5C211.2 247 213.3 247.3 215.4 247.3L220.4 256.9L230.1 254.3L229.7 245.1L229.6 243.5C231.4 242.4 233.1 241.1 234.7 239.6L245 242.8L249.3 235.4L250 234.1L242.1 226.8ZM219.3 232.7C212.4 234.6 205.3 230.5 203.4 223.6C201.5 216.7 205.6 209.6 212.5 207.7C219.4 205.8 226.5 209.9 228.4 216.8C230.2 223.7 226.2 230.8 219.3 232.7Z" fill="#263238"/>
<path d="M352.9 243.8L355.1 230.5L341.6 225.1C341.3 222.3 340.6 219.5 339.7 216.8L349.4 206L341.6 195L328.2 200.7C326 198.9 323.6 197.4 321 196.2L320.2 181.7L306.9 179.5L301.5 192.9C298.7 193.2 295.9 193.9 293.2 194.8L282.4 185.1L271.4 192.9L277.1 206.2C275.5 208.2 274.2 210.3 273.1 212.5C272.9 212.8 272.8 213.1 272.6 213.4L258.1 214.2L255.9 227.5L258.1 228.4L269.4 232.9C269.7 235.7 270.3 238.5 271.3 241.2L261.6 252L269.4 263L282.8 257.3C285 259.1 287.4 260.6 290 261.8L290.8 276.2L304.1 278.4L309.5 265.1C312.3 264.8 315.1 264.1 317.8 263.2L328.6 272.9L339.6 265L333.9 251.6C335.7 249.4 337.2 246.9 338.5 244.4L352.9 243.8ZM315.6 243.2C307.8 248.8 296.9 247 291.3 239.2C285.7 231.4 287.5 220.5 295.3 214.9C303.1 209.3 314 211.1 319.6 218.9C325.2 226.8 323.4 237.6 315.6 243.2Z" fill="#263238"/>
<path d="M172.6 316.4H68C60.8 316.4 54.9 310.5 54.9 303.3V158.5C54.9 151.3 60.8 145.4 68 145.4H172.6C179.8 145.4 185.7 151.3 185.7 158.5V303.3C185.7 310.5 179.9 316.4 172.6 316.4Z" fill="#D9D9D9" stroke="#263238" stroke-width="1.1031" stroke-miterlimit="10"/>
<path opacity="0.2" d="M172.6 316.4H68C60.8 316.4 54.9 310.5 54.9 303.3V158.5C54.9 151.3 60.8 145.4 68 145.4H172.6C179.8 145.4 185.7 151.3 185.7 158.5V303.3C185.7 310.5 179.9 316.4 172.6 316.4Z" fill="black"/>
<path d="M197.9 171.4V316.2C197.9 323.4 192 329.3 184.8 329.3H80.2C73 329.3 67.1 323.4 67.1 316.2V171.4C67.1 164.2 73 158.3 80.2 158.3H184.8C192 158.3 197.9 164.2 197.9 171.4Z" fill="white" stroke="#263238" stroke-width="1.1031" stroke-miterlimit="10" stroke-linecap="round" stroke-linejoin="round"/>
<path d="M197.9 171.4V179.2H67.1V171.4C67.1 164.2 73 158.3 80.2 158.3H184.8C192 158.3 197.9 164.2 197.9 171.4Z" fill="#D9D9D9" stroke="#263238" stroke-width="1.1031" stroke-miterlimit="10"/>
<path d="M111.6 188.1H79.4V193.5H111.6V188.1Z" fill="#D9D9D9"/>
<path d="M111.6 236.5H79.4V241.9H111.6V236.5Z" fill="#D9D9D9"/>
<path d="M111.6 280.4H79.4V285.8H111.6V280.4Z" fill="#D9D9D9"/>
<path d="M170.8 201.5H79.4V205.5H170.8V201.5Z" fill="#263238"/>
<path d="M154.3 209.1H79.4V213H154.3V209.1Z" fill="#263238"/>
<path d="M164.1 216.5H79.4V220.4H164.1V216.5Z" fill="#263238"/>
<path d="M164.1 224H79.4V227.9H164.1V224Z" fill="#263238"/>
<path d="M170.8 245.4H79.4V249.4H170.8V245.4Z" fill="#263238"/>
<path d="M154.3 253H79.4V256.9H154.3V253Z" fill="#263238"/>
<path d="M164.1 260.4H79.4V264.3H164.1V260.4Z" fill="#263238"/>
<path d="M170.8 293.6H79.4V297.6H170.8V293.6Z" fill="#263238"/>
<path d="M154.3 301.1H79.4V305H154.3V301.1Z" fill="#263238"/>
<path d="M164.1 308.6H79.4V312.5H164.1V308.6Z" fill="#263238"/>
<path d="M345.3 57.9V116.4C345.3 125 338.3 132 329.7 132H194.9C186.3 132 179.3 125 179.3 116.4V57.9C179.3 49.3 186.3 42.3 194.9 42.3H329.7C338.3 42.3 345.3 49.3 345.3 57.9Z" fill="white" stroke="#222221" stroke-width="1.1031" stroke-miterlimit="10"/>
<path d="M345.3 57.9V59.2H179.3V57.9C179.3 49.3 186.3 42.3 194.9 42.3H329.7C338.3 42.3 345.3 49.3 345.3 57.9Z" fill="#D9D9D9" stroke="#263238" stroke-width="1.1031" stroke-miterlimit="10"/>
<path d="M203.6 53.5C202.7 54.4 201.1 54.4 200.2 53.5C199.3 52.6 199.3 51 200.2 50.1C201.1 49.2 202.7 49.2 203.6 50.1C204.6 51.1 204.6 52.6 203.6 53.5Z" fill="#263238"/>
<path d="M214.8 53.5C213.9 54.4 212.3 54.4 211.4 53.5C210.5 52.6 210.5 51 211.4 50.1C212.3 49.2 213.9 49.2 214.8 50.1C215.7 51.1 215.7 52.6 214.8 53.5Z" fill="#263238"/>
<path d="M225.9 53.5C225 54.4 223.4 54.4 222.5 53.5C221.6 52.6 221.6 51 222.5 50.1C223.4 49.2 225 49.2 225.9 50.1C226.8 51.1 226.8 52.6 225.9 53.5Z" fill="#263238"/>
<path d="M244.1 70H189.8V116.9H244.1V70Z" stroke="#263238" stroke-width="1.1031" stroke-miterlimit="10" stroke-linecap="round" stroke-linejoin="round" stroke-dasharray="4.41 4.41"/>
<path d="M315 70H252.5V73.3H315V70Z" fill="#263238"/>
<path d="M300.4 76.8H252.5V80.1H300.4V76.8Z" fill="#263238"/>
<path d="M323.9 83.6H252.5V86.9H323.9V83.6Z" fill="#263238"/>
<path d="M313.3 90.3H252.5V93.6H313.3V90.3Z" fill="#263238"/>
<path d="M266.4 398.1C266.4 398.1 237.4 406.4 233.4 407.9C229.7 409.2 219.7 412.7 212.2 411.6C211.5 411.5 210.7 411.3 210.1 411.1C202.5 408.8 199.1 406.7 198.1 402C197.1 397.2 200.9 393.7 204.5 391.5C208.1 389.2 227.9 386.9 227.9 386.9L232.7 388.3L266.4 398.1Z" fill="#D9D9D9"/>
<path d="M212.2 411.5C211.5 411.4 210.7 411.2 210.1 411C202.5 408.7 199.1 406.6 198.1 401.9C197.1 397.1 200.9 393.6 204.5 391.4C208.1 389.1 227.9 386.8 227.9 386.8L232.7 388.2C228.4 390.2 212.3 391.3 208.8 393.3C205.3 395.3 203.6 399.1 205.7 404.3C206.7 407 209.7 409.7 212.2 411.5Z" fill="white"/>
<path d="M262 399.3C262 399.3 240.2 404.9 231.6 408.6C223 412.2 206.5 413.8 200.6 406.3C194.7 398.9 199.9 392.4 205.8 391C211.7 389.6 223.5 387.3 230 388.2" stroke="#263238" stroke-width="1.1031" stroke-miterlimit="10" stroke-linecap="round" stroke-linejoin="round"/>
<path d="M212.6 411.1C212.6 411.1 201.5 405 205.2 396.5C207.9 390.2 222.7 391.6 230 388.1" stroke="#263238" stroke-width="1.1031" stroke-miterlimit="10" stroke-linecap="round" stroke-linejoin="round"/>
<path d="M354.7 412.9C354.4 415.9 353.4 418.7 350.4 420.5C348.4 421.7 345.6 422.4 341.5 422.3C331.3 422.2 312.2 414.9 312.2 414.9L294.3 405L303.6 390.3L306.1 386.3L312.7 387.8C312.7 387.8 318.1 390.9 323.6 393.3C329.1 395.8 342.4 396.3 347.1 400.1C351.8 403.8 355.2 407.9 354.7 412.9Z" fill="#D9D9D9"/>
<path d="M354.7 412.9C354.4 415.9 353.4 418.7 350.4 420.5C351 418.2 351.4 415 349.9 411.6C347.9 407.1 341.4 403.2 332.8 402.5C324.3 401.8 317.7 397.8 314.3 396C311.6 394.6 306 391.6 303.6 390.3L306.1 386.3L312.7 387.8C312.7 387.8 318.1 390.9 323.6 393.3C329.1 395.8 342.4 396.3 347.1 400.1C351.8 403.8 355.2 407.9 354.7 412.9Z" fill="white"/>
<path d="M298.2 407.8C310.9 415.1 325.5 420.4 340.1 422.1C343.4 422.5 347.1 422.5 349.3 420.1C350.5 418.7 351 416.8 350.8 415C350.4 410.4 346.5 406.8 342.3 404.9C338.1 403.1 333.4 402.6 328.9 401.6C324.4 400.6 320.1 399 316 396.9C312.8 395.2 309.6 393.2 306.1 392.4C302.5 391.6 298.3 392.6 296.4 395.7" stroke="#263238" stroke-width="1.1031" stroke-miterlimit="10" stroke-linecap="round" stroke-linejoin="round"/>
<path d="M348.2 421.3C351.5 419.6 354.2 416.5 354.7 412.8C355.3 408.5 352.9 404.1 349.4 401.4C345.9 398.7 341.6 397.5 337.3 396.6C333 395.7 328.6 395.1 324.5 393.5C318.2 391 312 386.2 305.5 387.9" stroke="#263238" stroke-width="1.1031" stroke-miterlimit="10" stroke-linecap="round" stroke-linejoin="round"/>
<path d="M318.4 252.9L288.1 241.4L287.7 241.3C287.7 241.3 287.8 240.5 287.9 239.3C288.1 236.9 288.2 232.9 287.1 231.6C285.4 229.6 280.6 231.3 276 229.1C271.3 227 262.7 230.8 262.7 230.8C262.7 230.8 256.5 229.7 253.7 234.2C252.3 237.8 252.8 243.2 252.8 243.2C252.8 243.2 252.6 243.3 252.2 243.4C248.6 244.7 229 252.1 224.8 255.1C220.2 258.4 215.1 291.7 213.5 301.5C211.9 311.3 209 320.1 210.4 323.5C211.9 326.9 233 343.1 245.1 347.3C257.2 351.5 300.3 350.3 300.3 350.3C300.3 350.3 301 350.1 302.3 349.7C309.6 347.4 335.4 337.7 349.1 315C349.1 315 335.9 271.5 318.4 252.9ZM236.6 309C234.4 310.6 235.6 316.7 235.6 316.7L231.8 313.4L241.3 290L245.4 308C245.4 307.9 238.8 307.4 236.6 309ZM312.8 323.9C311.8 324.4 315.8 313.2 313.9 310.6C312 308 306.2 308.3 306.2 308.3L306.7 305.2C306.8 304.9 310.1 287.6 310.1 287.6L311.2 286.2C311.2 286.2 323 306.4 325.1 313.5C325.1 313.6 312.2 323.9 312.8 323.9Z" fill="#D9D9D9"/>
<path d="M261.3 179.9L245.7 196.5C245.7 196.5 243.5 198.4 244.4 203.2C245.3 208 247.3 212.2 248.8 212.5C250.3 212.8 252.4 212.8 252.4 212.8C252.4 212.8 255.8 220.1 258.1 222.9C258.1 222.9 258.9 234.1 258.5 237.2C258.5 237.2 264.1 242.1 269.4 242.7C274.7 243.3 282.9 235.2 282.9 235.2L284.9 225.3C284.9 225.3 289.7 218 290 216.1C290.3 214.2 292.5 214.7 293.6 213.7C294.7 212.7 297.2 208.5 297.6 204.4C298 200.4 298 195.7 293.3 197.1C289.2 196 291.8 187.4 291.8 187.4L284.7 181.1L261.3 179.9Z" fill="white"/>
<path opacity="0.5" d="M288.2 241.3C288 241.9 287.7 242.5 287.4 243.1C284.8 248 273.6 257.2 273.6 257.2L270.2 246.8L268.3 257.2C264.5 255.6 253.1 245.7 253.1 245.7C253.1 245.7 252.7 244.8 252.2 243.3C252.6 243.2 252.8 243.1 252.8 243.1C252.8 243.1 252.3 237.7 253.7 234.1C256.4 229.6 262.7 230.7 262.7 230.7C262.7 230.7 271.3 226.9 276 229C280.7 231.1 285.5 229.5 287.1 231.5C288.8 233.5 287.8 241.2 287.8 241.2L288.2 241.3Z" fill="white"/>
<path opacity="0.2" d="M318.4 252.9L288.1 241.4L287.7 241.3C287.7 241.3 287.8 240.5 287.9 239.3L287.3 243.2L282.8 249.3C282.8 249.3 290.4 252 296.8 255.5C301.3 257.9 303.8 262.7 303.2 267.7L297.6 315.4L295.3 342.5L302.2 349.7C309.5 347.4 335.3 337.7 349 315C349.1 315 335.9 271.5 318.4 252.9ZM312.8 323.9C311.8 324.4 315.8 313.2 313.9 310.6C312 308 306.2 308.3 306.2 308.3L306.7 305.2C306.8 304.9 310.1 287.6 310.1 287.6L311.2 286.2C311.2 286.2 323 306.4 325.1 313.5C325.1 313.6 312.2 323.9 312.8 323.9Z" fill="black"/>
<path opacity="0.2" d="M247.4 310.6L242.7 294.9C242.7 294.9 234.3 266.1 228.5 259L230 279.3C230 279.3 225 303.5 220.4 310.7C215.8 317.9 214.8 319.7 220.4 319.7C226 319.7 239.6 330.5 239.6 330.5L238.6 321.5L247.4 310.6ZM235.6 316.7L231.8 313.4L241.3 290L245.4 308C245.4 308 238.9 307.5 236.7 309.1C234.4 310.6 235.6 316.7 235.6 316.7Z" fill="black"/>
<path d="M258 222.9C258 222.9 258.9 231.4 258 235.3" stroke="#263238" stroke-width="1.1031" stroke-miterlimit="10" stroke-linecap="round" stroke-linejoin="round"/>
<path d="M283.6 234.1C283.6 234.1 283.6 230 284.5 226" stroke="#263238" stroke-width="1.1031" stroke-miterlimit="10" stroke-linecap="round" stroke-linejoin="round"/>
<path d="M285.9 186.2C285.9 186.2 291 192.7 290.8 197.5C290.5 202.4 290.1 208.2 290.3 213.8C290.4 219.5 281.2 231.3 276.5 232.4C271.8 233.5 267.7 233.7 264.6 230.7C261.6 227.7 258.5 223.5 254.6 218.1C250.6 212.7 251.6 200.9 251.6 200.9" stroke="#263238" stroke-width="1.1031" stroke-miterlimit="10" stroke-linecap="round" stroke-linejoin="round"/>
<path d="M273.6 205.3C273.3 207.1 273.2 208.9 273.2 210.7C273.2 212.2 273.5 213.8 274.5 214.9C275.1 215.5 275.9 215.9 276 216.7C276.1 217.4 275.6 218.1 274.9 218.4C274.3 218.8 273.6 219 273 219.5" stroke="#263238" stroke-width="1.1031" stroke-miterlimit="10" stroke-linecap="round" stroke-linejoin="round"/>
<path d="M265.4 220.2C265.4 220.2 266 224 271.1 224.8" stroke="#263238" stroke-width="1.1031" stroke-miterlimit="10" stroke-linecap="round" stroke-linejoin="round"/>
<path d="M265.9 208.2C265.9 209.3 265.4 210.2 264.8 210.2C264.2 210.2 263.7 209.3 263.7 208.2C263.7 207.1 264.2 206.2 264.8 206.2C265.5 206.2 265.9 207.1 265.9 208.2Z" fill="#263238"/>
<path d="M281.2 208.7C281.2 209.8 280.7 210.7 280.1 210.7C279.5 210.7 279 209.8 279 208.7C279 207.6 279.5 206.7 280.1 206.7C280.8 206.7 281.2 207.6 281.2 208.7Z" fill="#263238"/>
<path d="M278.2 203.9C278.2 203.9 283.2 198.9 287.4 204.5" stroke="#263238" stroke-width="2.2062" stroke-miterlimit="10" stroke-linecap="round" stroke-linejoin="round"/>
<path d="M267.6 204C267.6 204 264.4 200.5 259.5 204" stroke="#263238" stroke-width="2.2062" stroke-miterlimit="10" stroke-linecap="round" stroke-linejoin="round"/>
<path d="M258.4 227.6C258.4 227.6 261.4 236 268.3 238.4C275.1 240.8 284.2 228.4 284.2 228.4L283.7 226.8C283.7 226.8 277.8 234.5 271.2 233.2C264.6 231.9 258.1 223 258.1 223L258.4 227.6Z" fill="#263238"/>
<path d="M252.3 212.5C252.3 212.5 248.2 213.9 247.2 210.8C246.1 207.6 242.4 199.3 245.7 196.5C248.9 193.7 251.5 200.2 251.5 200.2" stroke="#263238" stroke-width="1.1031" stroke-miterlimit="10" stroke-linecap="round" stroke-linejoin="round"/>
<path d="M290.3 214.2C290.3 214.2 294.1 215 295.2 211.8C296.3 208.6 300 200.3 296.7 197.5C293.5 194.7 290.9 201.2 290.9 201.2" stroke="#263238" stroke-width="1.1031" stroke-miterlimit="10" stroke-linecap="round" stroke-linejoin="round"/>
<path d="M251.5 208.2C252.6 208.1 254.5 207.1 255.1 206.1C255.7 205.1 255.9 204 256.1 202.9C256.5 200.8 256.7 198.6 256.7 196.5C256.7 195.7 256.7 194.8 256.9 194C257.2 193.2 257.7 192.4 258.3 191.8C259.7 190.1 261.4 188.7 262.8 187C264.1 185.3 265.1 183.1 264.8 181C264.8 181 274 189.4 287.3 186.8C294.4 185.4 301.3 179.1 300.5 171.3C300.2 168.5 298.1 166.5 295.5 165.8C292 164.9 288.8 166.8 285.6 168C279.8 170.2 274.1 166.4 268.2 165.8C263.2 165.3 257 165.9 254.4 170.9C254.4 170.9 245.3 172 241.4 179.4C237.4 186.8 245 197.1 245 197.1C245 197.1 248 193.4 251.9 200.9L251.5 208.2Z" fill="#263238"/>
<path d="M286.5 184.3C286.5 184.3 284.2 196.5 290.3 202.4C290.3 202.4 291.6 198.7 293 197.8C293 197.8 296.4 191.4 291.9 184.3C287.4 177.2 286.5 184.3 286.5 184.3Z" fill="#263238"/>
<path opacity="0.2" d="M297.7 170.4C296.8 173.8 294 176.4 290.7 177.7C282.2 181.2 274 177.3 265.5 176.6C258.6 176 250.9 182.2 250.4 189.4" stroke="white" stroke-width="1.1031" stroke-miterlimit="10" stroke-linecap="round" stroke-linejoin="round"/>
<path opacity="0.2" d="M245.2 187.4C245.3 181.8 249 176.4 254.2 174.3" stroke="white" stroke-width="1.1031" stroke-miterlimit="10" stroke-linecap="round" stroke-linejoin="round"/>
<path d="M256.1 234.1C256.1 234.1 261.7 240.3 269.3 243.1C269.3 243.1 279.5 240.2 284.6 233.1" stroke="#263238" stroke-width="1.1031" stroke-miterlimit="10" stroke-linecap="round" stroke-linejoin="round"/>
<path d="M266.45 216.373C270.968 214.301 272.951 208.959 270.879 204.44C268.807 199.922 263.464 197.939 258.946 200.011C254.427 202.084 252.445 207.426 254.517 211.944C256.589 216.463 261.932 218.446 266.45 216.373Z" stroke="#263238" stroke-width="1.1031" stroke-miterlimit="10" stroke-linecap="round" stroke-linejoin="round"/>
<path d="M283.877 217.124C288.81 216.518 292.318 212.027 291.712 207.094C291.106 202.161 286.616 198.653 281.683 199.259C276.749 199.865 273.241 204.355 273.847 209.288C274.453 214.222 278.943 217.73 283.877 217.124Z" stroke="#263238" stroke-width="1.1031" stroke-miterlimit="10" stroke-linecap="round" stroke-linejoin="round"/>
<path d="M258 230.8C258 230.8 255.3 231.4 253.7 234.2C252.1 237 253.1 245.8 253.1 245.8C253.1 245.8 261.3 253.9 268.3 257.3L270.4 245.7L273.6 257.3C273.6 257.3 284.4 249.6 287.4 243.2C287.4 243.2 288.4 235.7 287.4 233.2C286.4 230.7 284.2 230.8 284.2 230.8" stroke="#263238" stroke-width="1.1031" stroke-miterlimit="10" stroke-linecap="round" stroke-linejoin="round"/>
<path d="M245.2 308.3C245.2 308.3 242 286.8 237.7 278" stroke="#263238" stroke-width="1.1031" stroke-miterlimit="10" stroke-linecap="round" stroke-linejoin="round"/>
<path d="M228.5 259C228.5 259 232.6 264.7 235.1 270.1" stroke="#263238" stroke-width="1.1031" stroke-miterlimit="10" stroke-linecap="round" stroke-linejoin="round"/>
<path d="M312.8 275C313.9 270.7 315.1 267 316.3 264.5" stroke="#263238" stroke-width="1.1031" stroke-miterlimit="10" stroke-linecap="round" stroke-linejoin="round"/>
<path d="M306.1 308.3C306.1 308.3 308.4 293.6 311.2 281.4" stroke="#263238" stroke-width="1.1031" stroke-miterlimit="10" stroke-linecap="round" stroke-linejoin="round"/>
<path d="M310.1 287.6C312.3 284.7 315.5 282.5 319 281.5" stroke="#263238" stroke-width="1.1031" stroke-miterlimit="10" stroke-linecap="round" stroke-linejoin="round"/>
<path d="M287.8 241.2C287.8 241.2 306.4 248.6 318.5 252.9C318.5 252.9 333.3 266.8 349.2 315C349.2 315 334.7 339.5 307 347.3" stroke="#263238" stroke-width="1.1031" stroke-miterlimit="10" stroke-linecap="round" stroke-linejoin="round"/>
<path d="M311.7 324.7L325.1 313.5C325.1 313.5 332.2 308.1 339.5 311.8" stroke="#263238" stroke-width="1.1031" stroke-miterlimit="10" stroke-linecap="round" stroke-linejoin="round"/>
<path d="M311.2 286.3C311.2 286.3 322.3 302.6 325.1 313.6" stroke="#263238" stroke-width="1.1031" stroke-miterlimit="10" stroke-linecap="round" stroke-linejoin="round"/>
<path d="M235.7 317.3L231.8 313.6C231.8 313.6 226 312.6 219.4 317" stroke="#263238" stroke-width="1.1031" stroke-miterlimit="10" stroke-linecap="round" stroke-linejoin="round"/>
<path d="M231.8 313.6C231.8 313.6 236.7 297.6 241.4 289.4" stroke="#263238" stroke-width="1.1031" stroke-miterlimit="10" stroke-linecap="round" stroke-linejoin="round"/>
<path d="M252.8 243.2C252.8 243.2 226 253.3 223.4 256.2C220.8 259.1 210.8 315.4 210.5 321.8C210.3 327.6 231.1 340.5 241.5 345.9" stroke="#263238" stroke-width="1.1031" stroke-miterlimit="10" stroke-linecap="round" stroke-linejoin="round"/>
<path d="M349.8 234.1H319.2C315.6 234.1 312.7 231.2 312.7 227.6V209.7C312.7 206.1 315.6 203.2 319.2 203.2H349.8C353.4 203.2 356.3 206.1 356.3 209.7V227.6C356.4 231.2 353.5 234.1 349.8 234.1Z" fill="white" stroke="#263238" stroke-width="1.1031" stroke-miterlimit="10" stroke-linecap="round" stroke-linejoin="round"/>
<path d="M326.8 212.5L318.5 217.7L326.2 224.6" stroke="#263238" stroke-width="1.1031" stroke-miterlimit="10" stroke-linecap="round" stroke-linejoin="round"/>
<path d="M342.1 225.1L349.7 218.7L341 213" stroke="#263238" stroke-width="1.1031" stroke-miterlimit="10" stroke-linecap="round" stroke-linejoin="round"/>
<path d="M330.9 229.1L337.1 209.7" stroke="#263238" stroke-width="1.1031" stroke-miterlimit="10" stroke-linecap="round" stroke-linejoin="round"/>
<path d="M272.8 262.2C272.8 263.2 272 264 271 264C270 264 269.2 263.2 269.2 262.2C269.2 261.2 270 260.4 271 260.4C272 260.4 272.8 261.2 272.8 262.2Z" fill="#263238"/>
<path d="M303.9 356.4H242.9C242.1 356.4 241.5 355.8 241.5 355C241.5 354.2 242.1 353.6 242.9 353.6H303.9C304.7 353.6 305.3 354.2 305.3 355C305.3 355.7 304.6 356.4 303.9 356.4Z" fill="#263238"/>
<path d="M306 351.6L314.2 313.2C314.7 310.7 312.8 308.3 310.2 308.3H238.9C236.3 308.3 234.4 310.7 234.9 313.2L242.2 350.3C242.6 352.2 244.2 353.5 246.1 353.6L301.9 354.9C303.9 354.9 305.6 353.6 306 351.6Z" fill="white" stroke="#263238" stroke-width="1.1031" stroke-miterlimit="10" stroke-linecap="round" stroke-linejoin="round"/>
<path d="M280 330.4C280 333.5 277.5 336.1 274.3 336.1C271.1 336.1 268.6 333.6 268.6 330.4C268.6 327.2 271.1 324.7 274.3 324.7C277.5 324.7 280 327.3 280 330.4Z" fill="#263238"/>
<path d="M291.2 311.9H299.6" stroke="#263238" stroke-width="1.1031" stroke-miterlimit="10" stroke-linecap="round" stroke-linejoin="round"/>
<path d="M250.7 311.9H282.9" stroke="#263238" stroke-width="1.1031" stroke-miterlimit="10" stroke-linecap="round" stroke-linejoin="round"/>
<path d="M306.1 392.4L299.6 409.5C299.6 409.5 283 405.3 261.8 401C239.6 396.4 216.4 390.6 204.4 369.5C202.9 366.9 202 363.9 202.6 361C204.3 353.7 213.8 351.7 220.1 351C224 350.5 228 350.4 231.9 350.3C233.9 350.3 240.6 349.2 242.2 350.4C242.2 350.4 246.4 353.5 249.9 355C253.4 356.5 305.3 353.6 305.3 353.6C305.3 353.6 306.8 350.3 306.9 347.4C315 343.3 333.9 339.8 341.9 341.3C354.4 343.7 361.7 351 360.4 358.7C359 366.3 331.3 386.8 306.1 392.4Z" fill="#263238"/>
<path d="M306.1 392.4C306.1 392.4 290.3 388.2 277.5 379.5C264.6 370.8 254.6 360.7 236.6 362.8" stroke="white" stroke-width="1.1031" stroke-miterlimit="10" stroke-linecap="round" stroke-linejoin="round"/>
<path d="M274.5 377.4C282.6 375.1 288.6 369.8 295.1 364.7C302 359.3 309.3 354.2 317.2 350.2" stroke="white" stroke-width="1.1031" stroke-miterlimit="10" stroke-linecap="round" stroke-linejoin="round"/>
<path d="M271.7 209.7H274.1" stroke="#263238" stroke-width="1.1031" stroke-miterlimit="10" stroke-linecap="round" stroke-linejoin="round"/>
</g>
<defs>
<clipPath id="clip0_4_2">
<rect width="439.1" height="429.8" fill="white"/>
</clipPath>
</defs>
</svg>
